<mxfile host="app.diagrams.net" modified="2022-05-09T11:09:31.162Z" agent="5.0 (Windows NT 10.0; WOW64) AppleWebKit/537.36 (KHTML, like Gecko) Chrome/86.0.4240.198 Safari/537.36" etag="NWnvL82gW5PRuH-7ZFq3" version="18.0.2" type="github">
  <diagram id="9LFVirJZFVcQrRk2dpHQ" name="Page-1">
    <mxGraphModel dx="1038" dy="537" grid="1" gridSize="10" guides="1" tooltips="1" connect="1" arrows="1" fold="1" page="1" pageScale="1" pageWidth="827" pageHeight="1169" math="0" shadow="0">
      <root>
        <mxCell id="0" />
        <mxCell id="1" parent="0" />
        <mxCell id="mCy6L7Xg52RXN49dxGRW-1" value="开始" style="ellipse;whiteSpace=wrap;html=1;fillColor=#e1d5e7;strokeColor=#9673a6;" vertex="1" parent="1">
          <mxGeometry x="414" width="70" height="50" as="geometry" />
        </mxCell>
        <mxCell id="mCy6L7Xg52RXN49dxGRW-2" value="" style="endArrow=classic;html=1;rounded=0;" edge="1" parent="1">
          <mxGeometry width="50" height="50" relative="1" as="geometry">
            <mxPoint x="448.5" y="50" as="sourcePoint" />
            <mxPoint x="449" y="80" as="targetPoint" />
          </mxGeometry>
        </mxCell>
        <mxCell id="mCy6L7Xg52RXN49dxGRW-3" value="读入原始数据 dat 文件" style="shape=parallelogram;perimeter=parallelogramPerimeter;whiteSpace=wrap;html=1;fixedSize=1;fillColor=#fff2cc;strokeColor=#d6b656;" vertex="1" parent="1">
          <mxGeometry x="370.68" y="80" width="156.63" height="30" as="geometry" />
        </mxCell>
        <mxCell id="mCy6L7Xg52RXN49dxGRW-4" value="文件是否读完？" style="rhombus;whiteSpace=wrap;html=1;fillColor=#dae8fc;strokeColor=#6c8ebf;" vertex="1" parent="1">
          <mxGeometry x="394.75" y="150" width="108.5" height="70" as="geometry" />
        </mxCell>
        <mxCell id="mCy6L7Xg52RXN49dxGRW-5" value="" style="endArrow=classic;html=1;rounded=0;" edge="1" parent="1">
          <mxGeometry width="50" height="50" relative="1" as="geometry">
            <mxPoint x="448.5" y="110" as="sourcePoint" />
            <mxPoint x="449" y="150" as="targetPoint" />
          </mxGeometry>
        </mxCell>
        <mxCell id="mCy6L7Xg52RXN49dxGRW-6" value="" style="endArrow=classic;html=1;rounded=0;" edge="1" parent="1">
          <mxGeometry width="50" height="50" relative="1" as="geometry">
            <mxPoint x="394.75" y="184.5" as="sourcePoint" />
            <mxPoint x="340" y="185" as="targetPoint" />
          </mxGeometry>
        </mxCell>
        <mxCell id="mCy6L7Xg52RXN49dxGRW-7" value="结束" style="ellipse;whiteSpace=wrap;html=1;fillColor=#e1d5e7;strokeColor=#9673a6;" vertex="1" parent="1">
          <mxGeometry x="250" y="162.25" width="90" height="45.5" as="geometry" />
        </mxCell>
        <mxCell id="mCy6L7Xg52RXN49dxGRW-8" value="" style="endArrow=classic;html=1;rounded=0;" edge="1" parent="1">
          <mxGeometry width="50" height="50" relative="1" as="geometry">
            <mxPoint x="448.5" y="220" as="sourcePoint" />
            <mxPoint x="449" y="260" as="targetPoint" />
          </mxGeometry>
        </mxCell>
        <mxCell id="mCy6L7Xg52RXN49dxGRW-9" value="否" style="text;html=1;align=center;verticalAlign=middle;resizable=0;points=[];autosize=1;strokeColor=none;fillColor=none;" vertex="1" parent="1">
          <mxGeometry x="420" y="220" width="30" height="20" as="geometry" />
        </mxCell>
        <mxCell id="mCy6L7Xg52RXN49dxGRW-10" value="数据标识符是否&lt;br&gt;为1或者6&amp;nbsp;" style="rhombus;whiteSpace=wrap;html=1;fillColor=#dae8fc;strokeColor=#6c8ebf;" vertex="1" parent="1">
          <mxGeometry x="379" y="260" width="140" height="70" as="geometry" />
        </mxCell>
        <mxCell id="mCy6L7Xg52RXN49dxGRW-11" value="" style="endArrow=classic;html=1;rounded=0;" edge="1" parent="1">
          <mxGeometry width="50" height="50" relative="1" as="geometry">
            <mxPoint x="519" y="294.5" as="sourcePoint" />
            <mxPoint x="570" y="295" as="targetPoint" />
          </mxGeometry>
        </mxCell>
        <mxCell id="mCy6L7Xg52RXN49dxGRW-12" value="" style="endArrow=classic;html=1;rounded=0;" edge="1" parent="1">
          <mxGeometry width="50" height="50" relative="1" as="geometry">
            <mxPoint x="449" y="330" as="sourcePoint" />
            <mxPoint x="449.5" y="370" as="targetPoint" />
          </mxGeometry>
        </mxCell>
        <mxCell id="mCy6L7Xg52RXN49dxGRW-13" value="否" style="text;html=1;align=center;verticalAlign=middle;resizable=0;points=[];autosize=1;strokeColor=none;fillColor=none;" vertex="1" parent="1">
          <mxGeometry x="519" y="272.5" width="30" height="20" as="geometry" />
        </mxCell>
        <mxCell id="mCy6L7Xg52RXN49dxGRW-14" value="读入sky数据，&lt;br&gt;并进行中值滤波" style="rounded=0;whiteSpace=wrap;html=1;fillColor=#d5e8d4;strokeColor=#82b366;" vertex="1" parent="1">
          <mxGeometry x="570" y="272.5" width="110" height="45" as="geometry" />
        </mxCell>
        <mxCell id="mCy6L7Xg52RXN49dxGRW-16" value="" style="endArrow=none;html=1;rounded=0;" edge="1" parent="1">
          <mxGeometry width="50" height="50" relative="1" as="geometry">
            <mxPoint x="680" y="300" as="sourcePoint" />
            <mxPoint x="730" y="250" as="targetPoint" />
          </mxGeometry>
        </mxCell>
        <mxCell id="mCy6L7Xg52RXN49dxGRW-17" value="是" style="text;html=1;align=center;verticalAlign=middle;resizable=0;points=[];autosize=1;strokeColor=none;fillColor=none;" vertex="1" parent="1">
          <mxGeometry x="370.68" y="162.25" width="30" height="20" as="geometry" />
        </mxCell>
        <mxCell id="mCy6L7Xg52RXN49dxGRW-18" value="是" style="text;html=1;align=center;verticalAlign=middle;resizable=0;points=[];autosize=1;strokeColor=none;fillColor=none;" vertex="1" parent="1">
          <mxGeometry x="414" y="330" width="30" height="20" as="geometry" />
        </mxCell>
        <mxCell id="mCy6L7Xg52RXN49dxGRW-19" value="数据标识符是否&lt;br&gt;为6" style="rhombus;whiteSpace=wrap;html=1;fillColor=#dae8fc;strokeColor=#6c8ebf;" vertex="1" parent="1">
          <mxGeometry x="379" y="370" width="140" height="70" as="geometry" />
        </mxCell>
        <mxCell id="mCy6L7Xg52RXN49dxGRW-20" value="" style="endArrow=classic;html=1;rounded=0;" edge="1" parent="1">
          <mxGeometry width="50" height="50" relative="1" as="geometry">
            <mxPoint x="448.5" y="440" as="sourcePoint" />
            <mxPoint x="449" y="480" as="targetPoint" />
          </mxGeometry>
        </mxCell>
        <mxCell id="mCy6L7Xg52RXN49dxGRW-21" value="" style="endArrow=classic;html=1;rounded=0;" edge="1" parent="1">
          <mxGeometry width="50" height="50" relative="1" as="geometry">
            <mxPoint x="239.5" y="400" as="sourcePoint" />
            <mxPoint x="240" y="440" as="targetPoint" />
          </mxGeometry>
        </mxCell>
        <mxCell id="mCy6L7Xg52RXN49dxGRW-22" value="是" style="text;html=1;align=center;verticalAlign=middle;resizable=0;points=[];autosize=1;strokeColor=none;fillColor=none;" vertex="1" parent="1">
          <mxGeometry x="414" y="440" width="30" height="20" as="geometry" />
        </mxCell>
      </root>
    </mxGraphModel>
  </diagram>
</mxfile>
